<svg xmlns="http://www.w3.org/2000/svg" xmlns:xlink="http://www.w3.org/1999/xlink" preserveAspectRatio="xMidYMid" width="43.56" height="43.57" viewBox="0 0 43.56 43.57">
  <defs>
    <style>
      .cls-1 {
        fill: #000;
        fill-rule: evenodd;
      }
    </style>
  </defs>
  <path d="M43.547,21.790 C43.547,20.170 42.381,18.441 40.942,17.933 C39.502,17.423 38.107,16.175 37.701,15.191 C37.295,14.209 37.401,12.336 38.056,10.957 C38.712,9.578 38.315,7.531 37.170,6.383 C36.024,5.237 33.977,4.842 32.597,5.498 C31.217,6.154 29.347,6.262 28.366,5.855 C27.385,5.450 26.137,4.052 25.625,2.613 C25.113,1.174 23.384,0.007 21.764,0.007 C20.143,0.007 18.414,1.174 17.902,2.613 C17.390,4.052 16.142,5.449 15.161,5.855 C14.180,6.262 12.310,6.154 10.930,5.498 C9.552,4.842 7.503,5.237 6.357,6.383 C5.212,7.531 4.815,9.578 5.471,10.957 C6.127,12.337 6.231,14.206 5.824,15.190 C5.416,16.172 4.025,17.423 2.586,17.933 C1.146,18.441 -0.020,20.170 -0.020,21.790 C-0.020,23.411 1.146,25.139 2.586,25.651 C4.025,26.163 5.418,27.414 5.826,28.394 C6.234,29.374 6.127,31.244 5.471,32.623 C4.815,34.002 5.212,36.050 6.357,37.195 C7.503,38.342 9.550,38.739 10.930,38.082 C12.310,37.426 14.180,37.321 15.161,37.729 C16.143,38.136 17.390,39.534 17.902,40.972 C18.414,42.408 20.143,43.573 21.764,43.573 C23.384,43.573 25.113,42.408 25.625,40.972 C26.137,39.534 27.383,38.136 28.364,37.726 C29.345,37.318 31.217,37.426 32.597,38.082 C33.976,38.739 36.024,38.342 37.170,37.195 C38.315,36.050 38.712,34.002 38.056,32.623 C37.401,31.244 37.293,29.373 37.699,28.393 C38.105,27.412 39.502,26.163 40.942,25.651 C42.381,25.139 43.547,23.411 43.547,21.790 ZM21.764,29.782 C17.344,29.782 13.770,26.210 13.770,21.799 C13.770,17.380 17.344,13.805 21.764,13.805 C26.174,13.805 29.748,17.380 29.748,21.799 C29.748,26.210 26.174,29.782 21.764,29.782 Z" class="cls-1"/>
</svg>
