<svg xmlns="http://www.w3.org/2000/svg" xmlns:xlink="http://www.w3.org/1999/xlink" preserveAspectRatio="xMidYMid" width="50.88" height="35.63" viewBox="0 0 50.88 35.63">
  <defs>
    <style>
      .cls-1 {
        fill: #000;
        fill-rule: evenodd;
      }
    </style>
  </defs>
  <path d="M50.661,14.001 L41.171,33.423 C40.576,34.644 38.979,35.644 37.628,35.644 L2.330,35.644 C0.980,35.644 0.362,34.642 0.961,33.423 L10.453,14.001 C11.046,12.778 12.642,11.775 13.992,11.775 L49.290,11.775 C50.644,11.775 51.259,12.778 50.661,14.001 ZM8.250,12.905 L-0.012,29.807 L-0.012,7.643 C-0.012,6.279 1.093,5.161 2.446,5.162 L13.262,5.162 L13.262,3.718 C13.262,2.723 13.644,1.795 14.344,1.090 C15.043,0.383 15.967,-0.005 16.951,-0.005 L23.241,-0.005 C25.270,-0.005 26.925,1.662 26.925,3.718 L26.925,5.161 L37.741,5.161 C39.092,5.161 40.199,6.279 40.199,7.643 L40.199,9.297 L13.992,9.297 C11.725,9.297 9.252,10.847 8.250,12.905 ZM15.720,5.162 L24.467,5.162 L24.467,3.718 C24.467,3.030 23.917,2.475 23.239,2.475 L16.948,2.475 C16.622,2.475 16.313,2.605 16.082,2.843 C15.852,3.077 15.720,3.390 15.720,3.718 L15.720,5.162 Z" class="cls-1"/>
</svg>
