<svg xmlns="http://www.w3.org/2000/svg" xmlns:xlink="http://www.w3.org/1999/xlink" preserveAspectRatio="xMidYMid" width="47.594" height="47.59" viewBox="0 0 47.594 47.59">
  <defs>
    <style>
      .cls-1 {
        fill: #000;
        fill-rule: evenodd;
      }
    </style>
  </defs>
  <path d="M47.137,18.837 L32.871,33.105 L0.003,47.583 L14.480,14.711 L28.748,0.447 C29.367,-0.174 30.373,-0.174 30.996,0.447 C31.617,1.070 31.617,2.075 30.996,2.696 L17.152,16.542 L8.576,36.008 L11.575,39.007 L31.042,30.434 L44.889,16.590 C45.508,15.967 46.512,15.967 47.137,16.590 C47.758,17.210 47.758,18.220 47.137,18.837 ZM29.214,27.586 C28.903,27.893 28.497,28.051 28.089,28.051 C27.680,28.051 27.274,27.893 26.964,27.586 C26.344,26.963 26.344,25.956 26.964,25.336 L40.296,12.005 C40.919,11.380 41.923,11.380 42.546,12.005 C43.169,12.625 43.169,13.630 42.546,14.254 L29.214,27.586 ZM25.734,24.105 C25.424,24.413 25.018,24.570 24.609,24.570 C24.203,24.570 23.795,24.413 23.484,24.105 C22.863,23.484 22.863,22.474 23.484,21.855 L36.817,8.523 C37.439,7.900 38.443,7.900 39.067,8.523 C39.688,9.143 39.688,10.150 39.067,10.773 L25.734,24.105 ZM22.253,20.622 C21.942,20.934 21.534,21.088 21.128,21.088 C20.722,21.088 20.314,20.934 20.003,20.622 C19.383,20.003 19.383,18.993 20.003,18.373 L33.336,5.042 C33.959,4.418 34.964,4.418 35.586,5.042 C36.208,5.662 36.208,6.668 35.586,7.292 L22.253,20.622 Z" class="cls-1"/>
</svg>
