<svg xmlns="http://www.w3.org/2000/svg" xmlns:xlink="http://www.w3.org/1999/xlink" preserveAspectRatio="xMidYMid" width="24.625" height="24.62" viewBox="0 0 24.625 24.62">
  <defs>
    <style>
      .cls-1 {
        fill: #000;
        filter: url(#color-overlay-1);
        fill-rule: evenodd;
      }
    </style>

    <filter id="color-overlay-1" filterUnits="userSpaceOnUse">
      <feFlood flood-color="#c7b299"/>
      <feComposite operator="in" in2="SourceGraphic"/>
      <feBlend in2="SourceGraphic" result="solidFill"/>
    </filter>
  </defs>
  <path d="M22.811,10.522 L20.885,12.450 L17.698,15.639 C17.545,15.809 17.357,15.963 17.187,16.099 C15.414,17.497 13.062,17.804 11.034,17.004 C10.284,16.713 9.568,16.253 8.955,15.639 L11.596,12.995 C12.551,13.950 14.102,13.950 15.056,12.995 L17.084,10.966 L20.169,7.879 C21.124,6.924 21.124,5.371 20.169,4.417 C19.215,3.462 17.664,3.462 16.709,4.417 L14.255,6.873 C12.721,6.157 10.966,6.037 9.347,6.497 L14.068,1.774 C16.471,-0.631 20.408,-0.631 22.811,1.774 C25.231,4.195 25.231,8.117 22.811,10.522 ZM13.574,7.573 C14.323,7.862 15.039,8.322 15.653,8.936 L13.011,11.581 C12.057,10.625 10.506,10.625 9.551,11.581 L4.438,16.696 C3.483,17.652 3.483,19.202 4.438,20.158 C5.392,21.114 6.943,21.114 7.898,20.158 L10.250,17.804 C12.261,18.607 12.807,18.674 15.158,18.129 L10.540,22.801 C8.137,25.207 4.199,25.207 1.796,22.801 C-0.607,20.397 -0.607,16.458 1.796,14.054 L6.909,8.936 C6.977,8.869 7.063,8.783 7.148,8.715 C8.937,7.111 11.443,6.719 13.574,7.573 Z" class="cls-1"/>
</svg>
