<svg xmlns="http://www.w3.org/2000/svg" xmlns:xlink="http://www.w3.org/1999/xlink" preserveAspectRatio="xMidYMid" width="25.157" height="24.47" viewBox="0 0 25.157 24.47">
  <defs>
    <style>
      .cls-1 {
        fill: #000;
        filter: url(#color-overlay-1);
        fill-rule: evenodd;
      }
    </style>

    <filter id="color-overlay-1" filterUnits="userSpaceOnUse">
      <feFlood flood-color="#fff"/>
      <feComposite operator="in" in2="SourceGraphic"/>
      <feBlend in2="SourceGraphic" result="solidFill"/>
    </filter>
  </defs>
  <path d="M24.675,23.982 C24.354,24.299 23.933,24.456 23.512,24.456 C23.092,24.456 22.670,24.299 22.349,23.982 L18.014,19.711 C16.121,21.158 13.754,22.028 11.178,22.028 C5.012,22.028 -0.004,17.086 -0.004,11.012 C-0.004,4.938 5.012,-0.004 11.178,-0.004 C17.344,-0.004 22.360,4.938 22.360,11.012 C22.360,13.382 21.589,15.574 20.292,17.373 L24.675,21.691 C25.317,22.324 25.317,23.350 24.675,23.982 ZM11.179,2.588 C6.464,2.588 2.628,6.367 2.628,11.012 C2.628,15.657 6.464,19.436 11.179,19.437 C13.283,19.437 15.209,18.681 16.700,17.434 C17.160,17.050 17.574,16.615 17.943,16.146 C19.059,14.723 19.729,12.945 19.729,11.012 C19.729,6.367 15.893,2.588 11.179,2.588 ZM16.029,9.391 C15.844,9.478 15.648,9.521 15.453,9.521 C14.966,9.521 14.499,9.254 14.271,8.793 C13.566,7.369 12.130,6.484 10.523,6.484 C9.797,6.484 9.208,5.904 9.208,5.187 C9.208,4.473 9.797,3.892 10.523,3.892 C13.144,3.892 15.487,5.335 16.636,7.657 C16.954,8.301 16.683,9.077 16.029,9.391 Z" class="cls-1"/>
</svg>
